<?xml version="1.0" encoding="utf-8"?>
<!-- Generator: Adobe Illustrator 26.0.0, SVG Export Plug-In . SVG Version: 6.00 Build 0)  -->
<svg version="1.1" id="Camada_1" xmlns="http://www.w3.org/2000/svg" xmlns:xlink="http://www.w3.org/1999/xlink" x="0px" y="0px"
	 viewBox="0 0 375 233" style="enable-background:new 0 0 375 233;" xml:space="preserve">
<style type="text/css">
	.st0{fill:#E30613;}
	.st1{fill:#C51718;}
	.st2{fill:#FAE900;}
	.st3{fill:#E5DD00;}
</style>
<path class="st0" d="M271.8,50.6C236.7,56.9,179.6,40,179.6,40S121.7,24.4,77.2,24.1c-39.4-0.3-65.9,14.8-65.9,14.8
	s14.7,51.8,17.7,97c2.9,45.1-5.9,83.6-5.9,83.6s34.9-27.5,73.5-29.1C135.9,188.7,179,213,179,213s40.6,19.4,89.3,13.6
	c39.3-4.7,88.9-34.8,88.9-34.8s7.5-31.7,7.5-69.9V121c0-2.3,0-4.6-0.1-6.9C363.4,64,352.5,8.8,352.5,8.8S320.8,41.8,271.8,50.6"/>
<path class="st1" d="M210,124.6c-37.2,0.1-74.8,5.3-74.8,5.3s-30.8,3-79.6,17.9c-20.5,6-26.4,9.6-26.4,9.6s0.3,7.1-1.1,30
	c-4,28.9-4.9,32.7-4.9,32.7s34.8-27.6,73.4-29.3c39.2-1.8,82.4,22.3,82.4,22.3s40.6,19.2,89.4,13.3c39.3-4.8,88.8-35.1,88.8-35.1
	s2-9,3-14.5c0.9-13.2,1-20.6,1-20.6s-46.5-26.6-135.2-31.3C220.8,124.7,215.5,124.6,210,124.6C210.1,124.6,210.1,124.6,210,124.6"/>
<path class="st2" d="M89.7,97.4c0,0,16.5-2.9,16.5,6.3c0,9.3-16.5,16.5-16.5,16.5V97.4z M66.6,78.8v18.5h4.1v59.1l18.5,0.3l0.3-17.9
	c0,0,39.1-12.6,39.1-39.7c0-17.9-25.3-20.3-25.3-20.3H66.6z M149,78.8c0,0-17.4,0.9-17.4,16.8c0,11.8,6.9,17.1,6.9,17.1l18.8,19.9
	c0,0,6.5,6-1.6,6c-8.1,0-26,0.1-26,0.1l-0.4,18.1h35c0,0,16.6-3.2,16.6-17.9c0-11.2-10.1-20-10.1-20L156.3,103c0,0-5.3-6.8,2.1-6.8
	h22.3V78.8H149z M186,78.8v17.9h18.2v60h18.5l0.6-60h23.2V78.8H186z M289.9,78.8l-0.3,59.7c0,0-20.6,2.4-22.1-13.2
	c-1.5-15.6,13.8-46.5,13.8-46.5H261c0,0-14.7,20.3-14.7,47.6c2.4,30.3,31.8,30.3,31.8,30.3h31.2V78.8H289.9z"/>
<path class="st3" d="M70.8,143.1v13.4l18.5,0.3l0.3-17.9L70.8,143.1z M278.1,156.8h31.2v-19.5l-19.7-4.3l0,5.6
	c0,0-12.3,1.4-18.5-5.1c-1.3-1.3-2.4-2.8-3.1-4.8c-0.2,0.1-0.1,0-0.1,0l-21.1-2c0,0-0.4-0.1-0.4-0.2
	C248.7,156.8,278.1,156.8,278.1,156.8 M246.3,126.5C246.3,126.5,246.3,126.5,246.3,126.5C246.3,126.5,246.3,126.5,246.3,126.5
	 M153,127.7c0,0,1.5,1.8,2,2.3l2.4,2.5c0.1,0.1,6.4,6-1.6,6c-8.1,0-26,0.1-26,0.1l-0.4,18.1h35c0,0,16.6-3.2,16.6-17.9
	c0-0.4,0-0.7,0-1.1c-0.3-4.5-2.1-8.5-4.1-11.7c-0.3-0.3-0.6-0.4-0.6-0.4L153,127.7z M204.3,156.8h18.5l0-31.7l-18.5-0.4V156.8z"/>
</svg>
